<svg width="640" height="480.00000000000006" xmlns="http://www.w3.org/2000/svg" xmlns:svg="http://www.w3.org/2000/svg" style="">
 <!-- Created with SVG-edit - https://github.com/SVG-Edit/svgedit-->
 <g class="layer">
  <title>Layer 1</title>
  <path fill-opacity="0" id="svg_1" stroke-width="5" stroke="#FFF" fill="#FFF" d="M38,132A83,83 0,1,1 204,132A83,83 0,1,1 38,132" class="RksOELVw_0"></path>
  <path fill-opacity="0" id="svg_4" stroke-width="5" stroke="#FFF" fill="#FFF" d="M133,227A83,83 0,1,1 299,227A83,83 0,1,1 133,227" class="RksOELVw_1"></path>
  <path fill-opacity="0" id="svg_5" stroke-width="5" stroke="#FFF" fill="#FFF" d="M232,128A83,83 0,1,1 398,128A83,83 0,1,1 232,128" class="RksOELVw_2"></path>
  <path fill-opacity="0" id="svg_6" stroke-width="5" stroke="#FFF" fill="#FFF" d="M331,220A83,83 0,1,1 497,220A83,83 0,1,1 331,220" class="RksOELVw_3"></path>
  <path fill-opacity="0" id="svg_7" stroke-width="5" stroke="#FFF" fill="#FFF" d="M432,127A83,83 0,1,1 598,127A83,83 0,1,1 432,127" class="RksOELVw_4"></path>
 </g>
<style data-made-with="vivus-instant">.RksOELVw_0{stroke-dasharray:522 524;stroke-dashoffset:523;animation:RksOELVw_draw 1333ms linear 0ms forwards;}.RksOELVw_1{stroke-dasharray:522 524;stroke-dashoffset:523;animation:RksOELVw_draw 1333ms linear 166ms forwards;}.RksOELVw_2{stroke-dasharray:522 524;stroke-dashoffset:523;animation:RksOELVw_draw 1333ms linear 333ms forwards;}.RksOELVw_3{stroke-dasharray:522 524;stroke-dashoffset:523;animation:RksOELVw_draw 1333ms linear 500ms forwards;}.RksOELVw_4{stroke-dasharray:522 524;stroke-dashoffset:523;animation:RksOELVw_draw 1333ms linear 666ms forwards;}@keyframes RksOELVw_draw{100%{stroke-dashoffset:0;}}@keyframes RksOELVw_fade{0%{stroke-opacity:1;}93.54838709677419%{stroke-opacity:1;}100%{stroke-opacity:0;}}</style></svg>
